<?xml version="1.0" encoding="utf-8"?>
<!-- Generator: Adobe Illustrator 22.0.1, SVG Export Plug-In . SVG Version: 6.00 Build 0)  -->
<svg version="1.1" id="Layer_1" xmlns="http://www.w3.org/2000/svg" xmlns:xlink="http://www.w3.org/1999/xlink" x="0px" y="0px"
	 viewBox="0 0 50 50" style="enable-background:new 0 0 50 50;" xml:space="preserve">
<style type="text/css">
	.st0{fill:#003168;}
</style>
<g>
	<g>
		<path class="st0" d="M46.8,39.9c-0.2-0.1-0.4-0.1-0.7-0.1c-0.3,0-0.6-0.1-1-0.1c-0.3-0.1-0.5-0.3-0.5-0.7c0.1-1.5-0.2-2.9-1-4.1
			c0-0.1-0.1-0.1-0.1-0.2c0.2-0.2,0.2-0.5,0.5-0.7c0.3-0.1,0.5-0.3,0.8-0.5c0.3-0.2,0.5-0.3,0.5-0.7c0-0.2-0.1-0.4-0.3-0.4
			c-0.3-0.1-0.6,0.1-0.8,0.3c-0.3,0.3-0.5,0.6-0.9,0.8c-0.3,0.2-0.6,0.2-0.9,0c-0.5-0.4-1-0.8-1.5-1.1c-0.7-0.4-1.4-0.6-2.2-0.7
			c-0.2,0-0.3-0.2-0.4-0.3c-0.2-0.6-0.2-0.7,0-1.4c0-0.1,0-0.3,0-0.4c0-0.3-0.3-0.6-0.5-0.6c-0.3,0-0.5,0.2-0.5,0.5
			c0,0.2,0,0.3,0,0.5c0.1,0.3,0.1,0.7,0.1,1c0,0.3-0.2,0.6-0.6,0.6c-1.4,0.2-2.6,0.8-3.7,1.8c-0.3,0.3-0.6,0.3-0.9,0
			c-0.4-0.3-0.6-0.7-1-1c-0.3-0.2-0.6-0.2-0.8,0c-0.2,0.2-0.1,0.6,0.1,0.8c0.1,0.1,0.2,0.1,0.2,0.2c0.3,0.2,0.7,0.4,0.9,0.6
			c0.2,0.2,0.4,0.4,0.3,0.7c-0.8,1.3-1.1,2.7-1,4.2c0,0.2-0.1,0.3-0.2,0.4c-0.2,0.1-0.3,0.2-0.5,0.3c-0.3,0-0.6,0.1-0.9,0.1
			c-0.1,0-0.2,0-0.4,0.1c-0.4,0.1-0.5,0.4-0.5,0.7c0.1,0.3,0.4,0.4,0.7,0.4c0.2,0,0.4-0.1,0.5-0.2c0.4-0.2,0.8-0.3,1.3-0.2
			c0.2,0,0.3,0.2,0.3,0.3c0.5,1.4,1.4,2.5,2.7,3.3c0.1,0.1,0.2,0.2,0.2,0.4c0,0.5-0.2,0.8-0.5,1.2c-0.1,0.1-0.1,0.2-0.2,0.2
			c-0.1,0.2-0.2,0.4-0.2,0.7c0,0.4,0.4,0.6,0.7,0.4c0.2-0.1,0.3-0.3,0.4-0.6c0.1-0.4,0.2-0.7,0.4-1.1c0.1-0.3,0.5-0.5,0.7-0.4
			c1.4,0.5,2.9,0.5,4.3,0c0.1,0,0.2,0,0.4,0.1c0.3,0.2,0.4,0.4,0.5,0.7c0.1,0.3,0.2,0.7,0.4,1c0.1,0.3,0.4,0.4,0.7,0.3
			c0.3-0.1,0.4-0.4,0.3-0.7c-0.1-0.2-0.2-0.3-0.3-0.5c-0.3-0.4-0.6-0.8-0.6-1.3c0-0.2,0.1-0.3,0.2-0.4c1.2-0.8,2.1-1.9,2.7-3.3
			c0.1-0.2,0.2-0.3,0.4-0.3c0.5-0.1,0.6,0,1.2,0.2c0.2,0.1,0.4,0.2,0.6,0.2c0.3,0,0.5-0.1,0.6-0.4C47.2,40.2,47.1,40,46.8,39.9z
			 M37.9,37.5c0.4,0,0.9,0.4,0.9,0.7c0,0.5-0.5,1.1-0.9,1.1c-0.4,0-0.9-0.6-0.9-1.1C37,37.9,37.5,37.5,37.9,37.5z M32.5,38.3
			c0-0.8,0.2-1.5,0.5-2.2c0.1-0.3,0.5-0.4,0.8-0.2c0.4,0.4,0.8,0.7,1.2,1.1c0.1,0.1,0.3,0.2,0.4,0.4c0.3,0.3,0.2,0.7-0.2,0.8
			c-0.7,0.2-1.3,0.4-2,0.6C32.8,38.9,32.5,38.6,32.5,38.3z M36,40.5c-0.3,0.6-0.5,1.3-0.8,1.9c-0.1,0.3-0.5,0.4-0.7,0.2
			c-0.6-0.5-1.1-1.1-1.4-1.8c-0.1-0.3,0-0.6,0.3-0.7c0.7-0.1,1.4-0.2,2.2-0.4C35.9,39.7,36.2,40.1,36,40.5z M34.6,34.9
			c-0.3-0.2-0.3-0.6,0-0.8c0.6-0.5,1.3-0.8,2-1c0.3-0.1,0.6,0.2,0.6,0.5c0,0.7-0.1,1.5-0.1,2.2c0,0.3-0.4,0.5-0.7,0.3
			C35.8,35.7,35.2,35.3,34.6,34.9z M39,43.7c-0.8,0.2-1.5,0.2-2.2,0c-0.3-0.1-0.5-0.4-0.3-0.7c0.2-0.4,0.4-0.7,0.6-1.1
			c0.1-0.3,0.3-0.6,0.5-0.8c0.2-0.3,0.6-0.3,0.8,0c0.4,0.6,0.7,1.3,1.1,1.9C39.5,43.3,39.4,43.6,39,43.7z M38.7,35.6
			c0-0.7-0.1-1.4-0.1-2c0,0,0,0,0,0c0-0.3,0.3-0.6,0.6-0.5c0.7,0.2,1.4,0.5,2,1c0.3,0.2,0.3,0.6,0,0.8c-0.1,0.1-0.2,0.1-0.3,0.2
			c-0.5,0.3-0.9,0.7-1.4,1C39.1,36.3,38.8,36.1,38.7,35.6z M42.8,40.8c-0.3,0.7-0.8,1.3-1.4,1.8c-0.2,0.2-0.6,0.1-0.7-0.2
			c-0.2-0.6-0.5-1.2-0.7-1.7c0-0.1-0.1-0.2-0.1-0.3c-0.1-0.3,0.1-0.7,0.5-0.6c0.7,0.1,1.4,0.2,2.2,0.3
			C42.7,40.2,42.9,40.5,42.8,40.8z M42.7,38.8c-0.7-0.2-1.4-0.4-2.1-0.6c-0.3-0.1-0.4-0.5-0.2-0.7c0.5-0.5,1.1-1,1.6-1.5
			c0.2-0.2,0.6-0.1,0.7,0.2c0.3,0.7,0.5,1.4,0.5,2.2C43.4,38.6,43.1,38.9,42.7,38.8z"/>
		<path class="st0" d="M41.8,47c-0.2,0-0.4-0.1-0.5-0.4c-0.1-0.2-0.2-0.4-0.2-0.6c0-0.1-0.1-0.2-0.1-0.4l0,0
			c-0.1-0.3-0.2-0.5-0.5-0.7c-0.1-0.1-0.2-0.1-0.3-0.1c-1.4,0.5-2.9,0.5-4.3,0c-0.2-0.1-0.6,0.1-0.7,0.4c-0.1,0.2-0.2,0.5-0.3,0.7
			c0,0.1-0.1,0.2-0.1,0.3c-0.1,0.2-0.2,0.5-0.4,0.6c-0.2,0.1-0.4,0.1-0.5,0c-0.1-0.1-0.2-0.2-0.3-0.4c0-0.3,0.1-0.5,0.2-0.7
			c0,0,0.1-0.1,0.1-0.1c0,0,0.1-0.1,0.1-0.1c0,0,0.1-0.1,0.1-0.1c0.2-0.3,0.4-0.6,0.4-1c0-0.1-0.1-0.3-0.2-0.3
			c-1.2-0.8-2.1-1.9-2.7-3.3c-0.1-0.1-0.2-0.2-0.3-0.3c-0.4-0.1-0.8,0-1.2,0.2c-0.2,0.1-0.4,0.1-0.5,0.2c-0.4,0.1-0.7-0.1-0.7-0.4
			c-0.1-0.3,0.1-0.6,0.5-0.7c0.1,0,0.2,0,0.3-0.1l0,0c0.3,0,0.6,0,0.9-0.1c0.2,0,0.3-0.1,0.5-0.2l0,0c0.1-0.1,0.2-0.2,0.2-0.4
			c-0.1-1.5,0.2-3,1-4.2c0.1-0.2,0-0.5-0.3-0.7c-0.2-0.2-0.4-0.3-0.7-0.5c-0.1-0.1-0.2-0.1-0.3-0.2l0,0c-0.1,0-0.1-0.1-0.2-0.1
			c-0.2-0.1-0.2-0.3-0.3-0.5c0-0.1,0-0.3,0.1-0.4c0.2-0.2,0.6-0.2,0.8,0c0.2,0.1,0.3,0.3,0.5,0.5c0.2,0.2,0.3,0.4,0.5,0.5
			c0.3,0.2,0.6,0.2,0.9,0c1-1,2.3-1.6,3.7-1.8c0.3,0,0.5-0.3,0.5-0.6c0-0.3,0-0.7-0.1-1c0-0.2-0.1-0.3,0-0.5c0-0.3,0.3-0.6,0.6-0.6
			c0.3,0,0.5,0.3,0.6,0.6c0,0.1,0,0.3,0,0.4l0,0c-0.1,0.7-0.1,0.8,0,1.4c0.1,0.2,0.2,0.3,0.3,0.3c0.8,0.1,1.6,0.4,2.2,0.7
			c0.6,0.3,1.1,0.7,1.5,1.1c0.2,0.2,0.5,0.2,0.8,0c0.3-0.2,0.5-0.5,0.7-0.7c0,0,0.1-0.1,0.1-0.1c0.2-0.2,0.4-0.4,0.8-0.3
			c0.2,0.1,0.3,0.2,0.4,0.5c0,0.4-0.2,0.6-0.5,0.7c-0.1,0.1-0.2,0.1-0.3,0.2c-0.2,0.1-0.3,0.2-0.5,0.3c-0.2,0.1-0.3,0.3-0.4,0.4
			c0,0.1-0.1,0.2-0.1,0.2c0,0,0,0.1,0,0.1c0,0,0,0,0,0.1c0.8,1.2,1.1,2.6,1,4.2c0,0.3,0.1,0.5,0.4,0.6c0.3,0.1,0.6,0.1,1,0.1
			c0.2,0,0.5,0,0.7,0.1c0.3,0.1,0.4,0.4,0.4,0.7c-0.1,0.3-0.3,0.4-0.6,0.4c-0.2,0-0.4-0.1-0.5-0.1c0,0-0.1,0-0.1,0l0,0
			c-0.6-0.2-0.7-0.3-1.2-0.2c-0.2,0-0.3,0.1-0.3,0.3c-0.5,1.4-1.5,2.5-2.7,3.3c-0.1,0.1-0.2,0.2-0.2,0.4c0,0.4,0.2,0.7,0.5,1.1
			c0,0.1,0.1,0.1,0.1,0.2l0,0c0.1,0.1,0.2,0.3,0.3,0.5c0.1,0.3,0,0.6-0.3,0.8C41.9,47,41.9,47,41.8,47z M40.2,44.8
			c0.1,0,0.2,0,0.3,0.1c0.3,0.2,0.4,0.4,0.5,0.7l0,0c0,0.1,0.1,0.2,0.1,0.4c0.1,0.2,0.1,0.4,0.2,0.6c0.1,0.3,0.4,0.4,0.6,0.3
			c0.3-0.1,0.4-0.4,0.2-0.7c-0.1-0.2-0.2-0.3-0.2-0.5l0,0c0-0.1-0.1-0.1-0.1-0.2c-0.2-0.3-0.5-0.7-0.5-1.1c0-0.2,0.1-0.3,0.2-0.4
			c1.2-0.8,2.1-1.9,2.7-3.3c0.1-0.2,0.2-0.3,0.4-0.3c0.5-0.1,0.6,0,1.2,0.2l0,0c0,0,0.1,0,0.1,0c0.2,0.1,0.3,0.1,0.5,0.1
			c0.3,0,0.5-0.1,0.6-0.4c0.1-0.3-0.1-0.5-0.3-0.6l0,0c-0.2-0.1-0.4-0.1-0.6-0.1c-0.3,0-0.6-0.1-1-0.1c-0.3-0.1-0.5-0.4-0.5-0.7
			c0.1-1.5-0.2-2.9-1-4.1c0,0,0,0,0,0c0-0.1-0.1-0.1,0-0.2c0.1-0.1,0.1-0.1,0.1-0.2c0.1-0.2,0.2-0.4,0.4-0.5
			c0.2-0.1,0.3-0.2,0.5-0.3c0.1-0.1,0.2-0.1,0.3-0.2c0.2-0.1,0.5-0.3,0.4-0.6c0-0.2-0.1-0.3-0.3-0.4c-0.3-0.1-0.5,0-0.7,0.3
			c0,0-0.1,0.1-0.1,0.1c-0.2,0.2-0.5,0.5-0.7,0.7c-0.3,0.2-0.7,0.2-0.9,0c-0.5-0.4-1-0.8-1.5-1.1c-0.6-0.3-1.4-0.6-2.2-0.7
			c-0.2,0-0.4-0.2-0.4-0.4c-0.2-0.6-0.2-0.7,0-1.4l0,0c0-0.1,0-0.3,0-0.4c0-0.3-0.2-0.5-0.5-0.5c-0.3,0-0.5,0.2-0.5,0.5
			c0,0.2,0,0.3,0,0.5c0.1,0.3,0.1,0.7,0.1,1c0,0.3-0.3,0.6-0.6,0.7c-1.4,0.2-2.6,0.8-3.7,1.7c-0.3,0.3-0.6,0.3-1,0
			c-0.2-0.2-0.4-0.3-0.5-0.5c-0.2-0.2-0.3-0.3-0.5-0.5c-0.2-0.2-0.6-0.2-0.7,0c-0.1,0.1-0.1,0.2-0.1,0.3c0,0.2,0.1,0.3,0.2,0.4
			c0.1,0.1,0.1,0.1,0.2,0.1l0,0c0.1,0.1,0.2,0.1,0.3,0.2c0.2,0.1,0.5,0.3,0.7,0.5c0.2,0.1,0.5,0.4,0.3,0.8c-0.8,1.3-1.1,2.7-1,4.2
			c0,0.2-0.1,0.3-0.2,0.5l0,0c-0.1,0.1-0.3,0.2-0.5,0.3c-0.3,0-0.6,0.1-0.9,0.1l0,0c-0.1,0-0.2,0-0.3,0c-0.3,0.1-0.5,0.3-0.4,0.6
			c0.1,0.3,0.3,0.4,0.7,0.3c0.2,0,0.4-0.1,0.5-0.2c0.4-0.2,0.8-0.4,1.3-0.2c0.2,0,0.3,0.2,0.4,0.3c0.5,1.4,1.4,2.5,2.6,3.3
			c0.1,0.1,0.2,0.2,0.2,0.4c0,0.4-0.2,0.7-0.4,1c0,0-0.1,0.1-0.1,0.1c0,0.1-0.1,0.1-0.1,0.1c0,0-0.1,0.1-0.1,0.1
			c-0.1,0.2-0.2,0.4-0.2,0.6c0,0.2,0.1,0.3,0.2,0.4c0.1,0.1,0.3,0.1,0.4,0c0.2-0.1,0.3-0.3,0.4-0.5c0-0.1,0.1-0.2,0.1-0.3
			c0.1-0.2,0.2-0.5,0.3-0.7c0.1-0.3,0.5-0.5,0.8-0.4c1.4,0.5,2.8,0.5,4.3,0C40.1,44.8,40.2,44.8,40.2,44.8z M37.9,43.8
			c-0.4,0-0.7,0-1.1-0.1c-0.2,0-0.3-0.1-0.4-0.3c-0.1-0.1-0.1-0.3,0-0.5c0.2-0.3,0.4-0.6,0.5-0.9l0.1-0.3c0.1-0.2,0.2-0.5,0.4-0.7
			c0.1-0.2,0.3-0.3,0.4-0.3c0,0,0,0,0,0c0.2,0,0.3,0.1,0.4,0.2c0.4,0.6,0.7,1.3,1.1,1.9c0.1,0.1,0.1,0.3,0,0.5
			c-0.1,0.2-0.2,0.3-0.4,0.3l0,0C38.7,43.8,38.3,43.8,37.9,43.8z M37.9,40.9c-0.1,0-0.3,0.1-0.4,0.2c-0.1,0.2-0.3,0.4-0.4,0.7
			L37,42.1c-0.2,0.3-0.3,0.6-0.5,0.9c-0.1,0.1-0.1,0.3,0,0.4c0.1,0.1,0.2,0.2,0.3,0.2c0.7,0.2,1.5,0.2,2.2,0h0
			c0.1,0,0.3-0.1,0.3-0.2c0.1-0.1,0.1-0.3,0-0.4c-0.3-0.6-0.7-1.3-1.1-1.9C38.2,41,38.1,40.9,37.9,40.9
			C37.9,40.9,37.9,40.9,37.9,40.9z M41.1,42.7c0,0-0.1,0-0.1,0c-0.2,0-0.3-0.1-0.3-0.3c-0.2-0.6-0.5-1.2-0.7-1.7l0-0.1
			c0-0.1-0.1-0.1-0.1-0.2c-0.1-0.2,0-0.4,0.1-0.5c0.1-0.1,0.3-0.2,0.4-0.1c0.6,0.1,1.2,0.2,1.8,0.3l0.3,0.1c0.2,0,0.3,0.1,0.4,0.3
			c0.1,0.1,0.1,0.3,0,0.5c-0.4,0.7-0.8,1.3-1.4,1.8C41.3,42.7,41.2,42.7,41.1,42.7z M40.2,39.8c-0.1,0-0.2,0-0.3,0.1
			c-0.1,0.1-0.1,0.3-0.1,0.4c0,0.1,0.1,0.1,0.1,0.2l0,0.1c0.2,0.6,0.5,1.1,0.7,1.7c0.1,0.1,0.2,0.2,0.3,0.3c0.1,0,0.3,0,0.4-0.1
			c0.6-0.5,1-1.1,1.4-1.8h0c0.1-0.1,0.1-0.3,0-0.4c-0.1-0.1-0.2-0.2-0.3-0.2l-0.3-0.1C41.5,40,40.9,39.9,40.2,39.8
			C40.2,39.8,40.2,39.8,40.2,39.8z M34.8,42.7c-0.1,0-0.2,0-0.3-0.1c-0.6-0.5-1.1-1.1-1.4-1.8c-0.1-0.1-0.1-0.3,0-0.4
			c0.1-0.1,0.2-0.2,0.4-0.3c0.5-0.1,1-0.2,1.5-0.2c0.2,0,0.5-0.1,0.7-0.1c0.2,0,0.3,0,0.4,0.2c0.1,0.1,0.1,0.4,0.1,0.6
			c-0.3,0.7-0.5,1.3-0.8,1.9c-0.1,0.2-0.2,0.3-0.3,0.3C34.9,42.7,34.8,42.7,34.8,42.7z M35.6,39.8C35.6,39.8,35.6,39.8,35.6,39.8
			c-0.3,0-0.5,0.1-0.8,0.1c-0.5,0.1-1,0.2-1.5,0.2c-0.1,0-0.2,0.1-0.3,0.2c-0.1,0.1-0.1,0.3,0,0.4c0.3,0.7,0.8,1.3,1.4,1.7
			c0.1,0.1,0.3,0.1,0.4,0.1c0.1,0,0.2-0.1,0.3-0.3c0.3-0.6,0.5-1.3,0.8-1.9h0c0.1-0.2,0.1-0.4,0-0.5C35.9,39.9,35.8,39.8,35.6,39.8z
			 M37.9,39.4c-0.2,0-0.4-0.1-0.5-0.3c-0.3-0.2-0.4-0.6-0.4-0.9c0-0.3,0.6-0.8,1-0.8c0.2,0,0.6,0.2,0.8,0.4c0.1,0.1,0.2,0.3,0.2,0.4
			C38.9,38.8,38.4,39.4,37.9,39.4C37.9,39.4,37.9,39.4,37.9,39.4z M37.9,37.6c-0.4,0-0.9,0.4-0.9,0.7c0,0.3,0.2,0.6,0.4,0.8
			c0.2,0.2,0.3,0.2,0.5,0.2c0.4,0,0.9-0.6,0.9-1.1c0-0.1-0.1-0.2-0.2-0.3C38.4,37.7,38.1,37.6,37.9,37.6z M33,38.8
			c-0.1,0-0.2,0-0.3-0.1c-0.1-0.1-0.2-0.3-0.2-0.4v0c0-0.8,0.2-1.5,0.5-2.2c0.1-0.2,0.2-0.3,0.4-0.3c0.2,0,0.3,0,0.4,0.1
			c0.2,0.2,0.4,0.4,0.6,0.6L35,37c0,0,0.1,0.1,0.1,0.1c0.1,0.1,0.2,0.2,0.3,0.2c0.2,0.1,0.2,0.3,0.2,0.5c0,0.2-0.2,0.3-0.4,0.4
			c-0.6,0.2-1.2,0.4-2.1,0.6C33.1,38.8,33,38.8,33,38.8z M32.5,38.3c0,0.1,0.1,0.3,0.2,0.4c0.1,0.1,0.2,0.1,0.4,0.1
			c0.8-0.2,1.5-0.4,2-0.6c0.2-0.1,0.3-0.2,0.3-0.3c0-0.1,0-0.3-0.2-0.4c-0.1-0.1-0.2-0.2-0.3-0.2c0,0-0.1-0.1-0.1-0.1l-0.6-0.5
			c-0.2-0.2-0.4-0.4-0.6-0.6c-0.1-0.1-0.2-0.1-0.4-0.1c-0.1,0-0.3,0.1-0.3,0.2C32.7,36.8,32.5,37.5,32.5,38.3z M42.9,38.8
			c0,0-0.1,0-0.1,0l0,0c-0.6-0.2-1.4-0.4-2.1-0.6c-0.2-0.1-0.3-0.2-0.3-0.4c0-0.2,0-0.3,0.1-0.4c0.5-0.5,1-0.9,1.6-1.4l0,0
			c0.1-0.1,0.3-0.2,0.4-0.1c0.2,0,0.3,0.1,0.4,0.3c0.3,0.7,0.5,1.4,0.5,2.2c0,0.2-0.1,0.3-0.2,0.4C43.1,38.8,43,38.8,42.9,38.8z
			 M42.8,38.7c0.1,0,0.3,0,0.4-0.1c0.1-0.1,0.2-0.2,0.2-0.4c0-0.8-0.2-1.5-0.5-2.2c-0.1-0.1-0.2-0.2-0.3-0.2c-0.1,0-0.3,0-0.4,0.1
			l0,0c-0.6,0.5-1.1,1-1.6,1.4c-0.1,0.1-0.1,0.2-0.1,0.4c0,0.1,0.1,0.3,0.3,0.3C41.4,38.3,42.1,38.5,42.8,38.7L42.8,38.7z
			 M36.7,36.2c-0.1,0-0.2,0-0.3-0.1c-0.6-0.4-1.1-0.8-1.7-1.2l-0.1-0.1c-0.1-0.1-0.2-0.2-0.2-0.4c0-0.2,0.1-0.3,0.2-0.4
			c0.6-0.5,1.3-0.8,2-1c0.2,0,0.3,0,0.5,0.1c0.1,0.1,0.2,0.3,0.2,0.4l0,0.2c0,0.7-0.1,1.3-0.1,2c0,0.2-0.1,0.3-0.3,0.4
			C36.8,36.2,36.7,36.2,36.7,36.2z M36.7,33.1c0,0-0.1,0-0.1,0c-0.8,0.2-1.4,0.5-2,1c-0.1,0.1-0.2,0.2-0.2,0.4
			c0,0.1,0.1,0.3,0.2,0.3h0l0.1,0.1c0.6,0.4,1.1,0.8,1.7,1.2c0.1,0.1,0.3,0.1,0.4,0c0.1-0.1,0.2-0.2,0.2-0.3c0-0.7,0.1-1.3,0.1-2
			l0-0.2c0-0.1-0.1-0.3-0.2-0.4C36.9,33.2,36.8,33.1,36.7,33.1z M39.2,36.2c-0.1,0-0.1,0-0.2,0c-0.2-0.1-0.3-0.3-0.3-0.5
			c0-0.6-0.1-1.3-0.1-2c0-0.2,0.1-0.3,0.2-0.4c0.1-0.1,0.3-0.1,0.5-0.1c0.7,0.2,1.4,0.5,2,1c0.1,0.1,0.2,0.3,0.2,0.4
			c0,0.2-0.1,0.3-0.2,0.4C41.1,34.9,41,35,41,35.1l0,0c-0.2,0.1-0.3,0.2-0.4,0.3c-0.3,0.2-0.6,0.4-0.9,0.7
			C39.4,36.2,39.3,36.2,39.2,36.2z M39.1,33.1c-0.1,0-0.2,0-0.3,0.1c-0.1,0.1-0.2,0.2-0.2,0.4l0,0l0,0c0,0.7,0.1,1.4,0.1,2v0
			c0,0.2,0.1,0.4,0.2,0.5c0.1,0.1,0.3,0,0.5-0.1c0.3-0.2,0.6-0.4,0.9-0.7c0.1-0.1,0.3-0.2,0.5-0.3l0,0c0.1-0.1,0.2-0.1,0.3-0.2
			c0.1-0.1,0.2-0.2,0.2-0.3c0-0.1-0.1-0.3-0.2-0.4c-0.6-0.5-1.2-0.8-2-1C39.2,33.2,39.1,33.1,39.1,33.1z"/>
	</g>
	<g>
		<path class="st0" d="M29.8,31.2l0.5-0.3l1.1-0.5l1.9-0.9l3-1.4c0,0,0.1,0,0.1,0c0.1,0,0.2-0.1,0.3-0.1l2.1-1.1
			c0.3-0.2,0.5-0.5,0.5-0.8V10c0-2.2-1.8-3.9-3.9-3.9h-7.2v2.8h6.7c0.8,0,1.5,0.7,1.5,1.5v15.2c0,0-0.1,0-0.1,0l-7.2,3.5l-5.8-3.3
			c0.1-0.3,0.2-0.6,0.3-0.9h5.5c0.4,0,0.8-0.2,1-0.4c0.3-0.3,0.4-0.6,0.4-1c0-0.8-0.7-1.4-1.5-1.4h-5.5c-0.1-0.3-0.2-0.6-0.3-0.9
			l6.3-3.6c0.5-0.3,0.7-0.8,0.7-1.3c0-0.2-0.1-0.5-0.2-0.7c-0.4-0.7-1.3-0.9-2-0.5l-6.4,3.7c-1.2-1.1-2.8-1.8-4.6-1.8
			c-3.1,0-5.7,2.2-6.4,5.1H8.7c-0.4,0-0.8,0.2-1,0.4c-0.3,0.3-0.4,0.6-0.4,1c0,0.8,0.7,1.4,1.5,1.4h2c0.6,2.9,3.3,5.1,6.4,5.1
			c1.8,0,3.3-0.7,4.5-1.8l4.9,2.8c0,0.1,0,0.2-0.1,0.2L25,37.8l0,0.2H8.2c-0.8,0-1.5-0.7-1.5-1.5V10.4c0-0.8,0.7-1.5,1.5-1.5h6.6V6
			H7.6C5.4,6,3.7,7.8,3.7,10v27.1c0,2.2,1.8,3.9,3.9,3.9h18.3c0.3,0,0.6-0.1,0.8-0.4c0-0.1,0.1-0.2,0.1-0.2c0,0,0,0,0,0l0.2-0.9
			c0,0,0,0,0,0l0.4-1.5l1.2-5.3c0.1-0.2,0.1-0.5,0.1-0.6c0-0.2,0.1-0.3,0.1-0.4C28.8,31.6,29.3,31.4,29.8,31.2z M21.5,23.4
			c0,2.4-1.9,4.4-4.3,4.4c-2.4,0-4.4-1.9-4.4-4.4v0c0-2.4,1.9-4.4,4.3-4.4C19.5,19,21.5,21,21.5,23.4L21.5,23.4z"/>
		<path class="st0" d="M25.9,41.1H7.6c-2.2,0-4-1.8-4-4V10c0-2.2,1.8-4,4-4h7.2v2.9H8.2c-0.8,0-1.5,0.7-1.5,1.5v26.1
			c0,0.8,0.7,1.5,1.5,1.5H25l1.5-6.7c0-0.1,0-0.1,0-0.2l-4.9-2.8c-1.2,1.2-2.8,1.8-4.5,1.8c-1.5,0-3-0.5-4.2-1.5
			c-1.1-0.9-2-2.2-2.3-3.7h-2c-0.8,0-1.5-0.7-1.5-1.5c0-0.4,0.1-0.8,0.4-1.1c0.3-0.3,0.7-0.4,1-0.4h2c0.3-1.4,1.1-2.7,2.3-3.6
			c1.2-0.9,2.6-1.5,4.1-1.5c1.7,0,3.3,0.7,4.6,1.8l6.4-3.7c0.3-0.2,0.7-0.3,1.1-0.1c0.4,0.1,0.7,0.3,0.9,0.7
			c0.1,0.2,0.2,0.5,0.2,0.7c0,0.5-0.3,1-0.7,1.3l-6.3,3.6c0.1,0.3,0.2,0.5,0.2,0.8H29c0.8,0,1.5,0.7,1.5,1.5c0,0.4-0.1,0.8-0.4,1.1
			c-0.3,0.3-0.7,0.4-1,0.4h-5.5c-0.1,0.3-0.1,0.5-0.2,0.8l5.7,3.3l7.2-3.4l0,0c0,0,0,0,0,0V10.4c0-0.8-0.7-1.5-1.5-1.5H28V6h7.3
			c2.2,0,4,1.8,4,4v16c0,0.4-0.2,0.7-0.5,0.8l-2.1,1.1c-0.1,0-0.2,0.1-0.3,0.1c0,0-0.1,0-0.1,0l-6.5,3.1c-0.5,0.3-0.9,0.5-1,0.5
			c0,0,0,0.1-0.1,0.3c0,0.1-0.1,0.4-0.1,0.6L27,39.5l0,0l-0.2,0.9l0,0c0,0.1-0.1,0.2-0.1,0.2C26.5,40.9,26.2,41.1,25.9,41.1z
			 M7.6,6.1c-2.1,0-3.9,1.7-3.9,3.9v27.1c0,2.1,1.7,3.9,3.9,3.9h18.3c0.3,0,0.6-0.1,0.7-0.4c0-0.1,0.1-0.2,0.1-0.2l0,0l0.2-0.8l0,0
			l0,0l1.6-6.8c0.1-0.3,0.1-0.5,0.1-0.6c0-0.1,0.1-0.3,0.1-0.4c0-0.1,1-0.6,1-0.6l6.5-3.1c0,0,0.1,0,0.1,0c0.1,0,0.2-0.1,0.3-0.1
			l2.1-1.1c0.3-0.1,0.5-0.4,0.5-0.8V10c0-2.1-1.7-3.9-3.9-3.9h-7.2v2.7h6.7c0.9,0,1.6,0.7,1.6,1.6v15.2l0,0c0,0,0,0-0.1,0l0,0
			l-7.2,3.5l0,0l-5.8-3.4l0,0c0.1-0.3,0.2-0.6,0.3-0.9l0,0h5.5c0.4,0,0.7-0.1,1-0.4c0.3-0.3,0.4-0.6,0.4-1c0-0.8-0.7-1.4-1.4-1.4
			h-5.5l0,0c-0.1-0.3-0.2-0.6-0.3-0.9l0,0l6.3-3.7c0.4-0.3,0.7-0.7,0.7-1.2c0-0.2-0.1-0.5-0.2-0.7c-0.2-0.3-0.5-0.6-0.9-0.7
			c-0.4-0.1-0.7,0-1.1,0.1l-6.5,3.7l0,0c-1.2-1.2-2.8-1.8-4.5-1.8c-1.5,0-2.9,0.5-4.1,1.4c-1.1,0.9-1.9,2.2-2.3,3.6l0,0H8.7
			c-0.4,0-0.7,0.1-1,0.4c-0.3,0.3-0.4,0.6-0.4,1c0,0.8,0.7,1.4,1.4,1.4h2.1l0,0c0.3,1.4,1.1,2.7,2.3,3.7c1.2,0.9,2.6,1.5,4.1,1.5
			c1.7,0,3.3-0.6,4.5-1.8l0,0l5,2.9l0,0c0,0.1,0,0.2-0.1,0.2L25,38H8.2c-0.9,0-1.6-0.7-1.6-1.6V10.4c0-0.9,0.7-1.6,1.6-1.6h6.5V6.1
			H7.6z M17.2,27.9c-1.2,0-2.3-0.4-3.1-1.3c-0.8-0.8-1.3-1.9-1.3-3.1v0c0-2.4,1.9-4.4,4.3-4.5c1.2,0,2.3,0.4,3.2,1.3
			c0.8,0.8,1.3,1.9,1.3,3.1v0C21.6,25.8,19.6,27.8,17.2,27.9C17.2,27.9,17.2,27.9,17.2,27.9z M17.2,19.1
			C17.1,19.1,17.1,19.1,17.2,19.1c-2.4,0-4.3,2-4.3,4.4v0c0,1.2,0.5,2.3,1.3,3.1c0.8,0.8,1.9,1.3,3.1,1.2c2.3,0,4.3-2,4.3-4.4v0
			c0-1.2-0.5-2.3-1.3-3.1C19.4,19.5,18.3,19.1,17.2,19.1z"/>
	</g>
	<g>
		<rect x="31.4" y="13.1" class="st0" width="4.2" height="4.2"/>
		<path class="st0" d="M35.6,17.4h-4.3v-4.3h4.3V17.4z M31.4,17.3h4.1v-4.1h-4.1V17.3z"/>
	</g>
	<g>
		<rect x="31.4" y="21.3" class="st0" width="4.2" height="4.2"/>
		<path class="st0" d="M35.6,25.5h-4.3v-4.3h4.3V25.5z M31.4,25.5h4.1v-4.1h-4.1V25.5z"/>
	</g>
	<g>
		<polygon class="st0" points="19.8,12.7 23.1,12.7 23.1,9.1 26.8,9.1 26.8,5.8 23.1,5.8 23.1,2 19.8,2 19.8,5.8 16.1,5.8 16.1,9.1 
			19.8,9.1 		"/>
		<path class="st0" d="M23.1,12.8h-3.4V9.1h-3.6V5.7h3.6V2h3.4v3.7h3.7v3.4h-3.7V12.8z M19.8,12.7h3.2V9h3.7V5.8h-3.7V2.1h-3.2v3.7
			h-3.6V9h3.6V12.7z"/>
	</g>
</g>
</svg>
