<?xml version="1.0" encoding="utf-8"?>
<!-- Generator: Adobe Illustrator 22.0.1, SVG Export Plug-In . SVG Version: 6.00 Build 0)  -->
<svg version="1.1" id="Layer_1" xmlns="http://www.w3.org/2000/svg" xmlns:xlink="http://www.w3.org/1999/xlink" x="0px" y="0px"
	 viewBox="0 0 50 50" style="enable-background:new 0 0 50 50;" xml:space="preserve">
<style type="text/css">
	.st0{fill:none;}
</style>
<g>
	<line class="st0" x1="21.9" y1="30" x2="21.5" y2="30.5"/>
	<g>
		<path d="M46.6,38.2c-0.2-0.1-0.4-0.1-0.7-0.1c-0.3,0-0.7-0.1-1-0.1c-0.3-0.1-0.5-0.3-0.5-0.7c0.1-1.5-0.2-2.9-1-4.2
			c0-0.1-0.1-0.1-0.1-0.2c0.2-0.2,0.2-0.5,0.5-0.7c0.3-0.1,0.5-0.3,0.8-0.5c0.3-0.2,0.5-0.3,0.5-0.7c0-0.2-0.1-0.4-0.3-0.4
			c-0.3-0.1-0.6,0.1-0.8,0.3c-0.3,0.3-0.5,0.6-0.9,0.8c-0.3,0.2-0.6,0.2-0.9,0c-0.5-0.4-1-0.8-1.5-1.1c-0.7-0.4-1.4-0.6-2.2-0.7
			c-0.2,0-0.3-0.2-0.4-0.3c-0.2-0.6-0.2-0.7,0-1.4c0-0.1,0-0.3,0-0.4c0-0.3-0.3-0.6-0.5-0.6c-0.3,0-0.5,0.2-0.5,0.5
			c0,0.2,0,0.3,0,0.5c0.1,0.3,0.1,0.7,0.1,1c0,0.3-0.2,0.6-0.6,0.6c-1.4,0.2-2.7,0.8-3.7,1.8c-0.3,0.3-0.6,0.3-0.9,0
			c-0.4-0.3-0.7-0.7-1-1c-0.3-0.2-0.6-0.2-0.8,0c-0.2,0.2-0.1,0.6,0.1,0.8c0.1,0.1,0.2,0.1,0.3,0.2c0.3,0.2,0.7,0.4,1,0.6
			c0.2,0.2,0.4,0.5,0.3,0.7c-0.8,1.3-1.1,2.7-1,4.3c0,0.2-0.1,0.3-0.2,0.4c-0.2,0.1-0.3,0.2-0.5,0.3c-0.3,0-0.6,0.1-0.9,0.1
			c-0.1,0-0.3,0-0.4,0.1c-0.4,0.1-0.5,0.4-0.5,0.7c0.1,0.3,0.4,0.4,0.7,0.4c0.2,0,0.4-0.1,0.5-0.2c0.4-0.2,0.8-0.3,1.3-0.2
			c0.2,0,0.3,0.2,0.3,0.3c0.5,1.4,1.4,2.5,2.7,3.4c0.1,0.1,0.2,0.2,0.2,0.4c0,0.5-0.2,0.8-0.5,1.2c-0.1,0.1-0.1,0.2-0.2,0.2
			c-0.1,0.2-0.3,0.4-0.2,0.7c0,0.4,0.4,0.6,0.7,0.4c0.2-0.1,0.3-0.3,0.4-0.6c0.1-0.4,0.2-0.7,0.4-1.1c0.1-0.3,0.5-0.5,0.8-0.4
			c1.4,0.5,2.9,0.5,4.3,0c0.1,0,0.2,0,0.4,0.1c0.3,0.2,0.4,0.4,0.5,0.7c0.1,0.3,0.2,0.7,0.4,1c0.1,0.3,0.4,0.4,0.7,0.3
			c0.3-0.1,0.4-0.4,0.3-0.7c-0.1-0.2-0.2-0.3-0.3-0.5c-0.3-0.4-0.6-0.8-0.6-1.3c0-0.2,0.1-0.3,0.2-0.4c1.3-0.8,2.1-2,2.7-3.4
			c0.1-0.2,0.2-0.3,0.4-0.3c0.5-0.1,0.6,0,1.2,0.2c0.2,0.1,0.4,0.2,0.6,0.2c0.3,0,0.5-0.1,0.6-0.4C47.1,38.5,46.9,38.3,46.6,38.2z
			 M37.7,35.8c0.4,0,0.9,0.4,0.9,0.7c0,0.5-0.5,1.1-0.9,1.1c-0.4,0-0.9-0.6-0.9-1.1C36.7,36.2,37.3,35.8,37.7,35.8z M32.2,36.6
			c0-0.8,0.2-1.5,0.5-2.2c0.1-0.3,0.5-0.4,0.8-0.2c0.4,0.4,0.8,0.7,1.2,1.1c0.1,0.1,0.3,0.2,0.4,0.4c0.3,0.3,0.2,0.7-0.2,0.8
			c-0.7,0.2-1.4,0.4-2.1,0.6C32.5,37.2,32.2,36.9,32.2,36.6z M35.8,38.8c-0.3,0.6-0.5,1.3-0.8,1.9c-0.1,0.3-0.5,0.4-0.8,0.2
			c-0.6-0.5-1.1-1.1-1.4-1.8c-0.1-0.3,0-0.6,0.3-0.7c0.7-0.1,1.5-0.2,2.2-0.4C35.7,38,35.9,38.4,35.8,38.8z M34.3,33.1
			c-0.3-0.2-0.3-0.6,0-0.8c0.6-0.5,1.3-0.8,2.1-1c0.3-0.1,0.6,0.2,0.6,0.5c0,0.7-0.1,1.5-0.1,2.2c0,0.4-0.4,0.5-0.7,0.3
			C35.5,34,34.9,33.6,34.3,33.1z M38.8,42.1c-0.8,0.2-1.5,0.2-2.3,0c-0.3-0.1-0.5-0.4-0.3-0.7c0.2-0.4,0.4-0.7,0.6-1.1
			c0.1-0.3,0.3-0.6,0.5-0.8c0.2-0.3,0.6-0.3,0.8,0c0.4,0.6,0.7,1.3,1.1,1.9C39.3,41.6,39.1,42,38.8,42.1z M38.5,33.9
			c0-0.7-0.1-1.4-0.1-2.1c0,0,0,0,0,0c0-0.3,0.3-0.6,0.6-0.5c0.7,0.2,1.4,0.5,2,1c0.3,0.2,0.3,0.6,0,0.8c-0.1,0.1-0.2,0.1-0.3,0.2
			c-0.5,0.3-0.9,0.7-1.4,1C38.9,34.6,38.5,34.4,38.5,33.9z M42.6,39.1c-0.3,0.7-0.8,1.3-1.4,1.8c-0.3,0.2-0.6,0.1-0.8-0.2
			c-0.2-0.6-0.5-1.2-0.7-1.7c0-0.1-0.1-0.2-0.1-0.3c-0.1-0.4,0.1-0.7,0.5-0.6c0.7,0.1,1.4,0.2,2.2,0.4
			C42.6,38.5,42.7,38.9,42.6,39.1z M42.6,37.1c-0.7-0.2-1.4-0.4-2.1-0.6c-0.3-0.1-0.4-0.5-0.2-0.7c0.5-0.5,1.1-1,1.7-1.5
			c0.2-0.2,0.6-0.1,0.8,0.2c0.3,0.7,0.5,1.4,0.5,2.2C43.2,36.9,42.9,37.2,42.6,37.1z"/>
	</g>
	<path d="M26.5,38c-0.1,0.2-0.1,0.5-0.1,0.7l0.2-0.9L26.5,38z"/>
	<path d="M34.9,4H23v2.8h11.4c0.9,0,1.6,0.7,1.6,1.6v15.4c0,0-0.1,0-0.1,0l-7.2,3.5l-5.8-3.4c0.1-0.3,0.2-0.6,0.3-0.9h5.6
		c0.4,0,0.8-0.2,1-0.4c0.3-0.3,0.4-0.6,0.4-1c0-0.8-0.7-1.4-1.5-1.4h-5.5c-0.1-0.3-0.2-0.6-0.3-0.9l6.4-3.7c0.5-0.3,0.7-0.8,0.7-1.3
		c0-0.2-0.1-0.5-0.2-0.7c-0.4-0.7-1.3-0.9-2-0.5l-6.5,3.8c-1.2-1.2-2.8-1.9-4.6-1.9c-3.1,0-5.8,2.2-6.4,5.1H8.1
		c-0.4,0-0.8,0.2-1,0.4c-0.3,0.3-0.4,0.6-0.4,1c0,0.8,0.7,1.4,1.5,1.4h2c0.6,3,3.3,5.2,6.5,5.2c1.8,0,3.4-0.7,4.6-1.8l5,2.9
		c0,0.1,0,0.2-0.1,0.2l-1.5,6.6l0,0.2h-17c-0.9,0-1.6-0.7-1.6-1.6V8.4c0-0.9,0.7-1.6,1.6-1.6h11.4V4H7C4.8,4,3,5.8,3,8v27.4
		c0,2.2,1.8,4,4,4h18.5c0.3,0,0.6-0.1,0.8-0.4c0.1-0.1,0.1-0.2,0.1-0.2c0,0,0,0,0,0c0-0.2,0.1-0.5,0.1-0.7l0-0.2c0,0,0,0,0,0
		l0.4-1.6l1.2-5.3c0.1-0.2,0.1-0.5,0.2-0.6c0-0.2,0.1-0.3,0.1-0.4c0-0.1,0.5-0.3,1-0.6l0.5-0.3l1.1-0.5l1.9-0.9l3-1.4
		c0,0,0.1,0,0.1,0c0.1,0,0.2-0.1,0.3-0.1l2.2-1.1c0.3-0.2,0.5-0.5,0.5-0.8V8C38.9,5.8,37.1,4,34.9,4z M21,21.6
		c0,2.4-1.9,4.4-4.3,4.5c-2.5,0-4.5-2-4.5-4.4v0c0-2.4,1.9-4.4,4.3-4.5C19,17.1,21,19.1,21,21.6L21,21.6z"/>
	<rect x="31" y="11.2" width="4.3" height="4.3"/>
	<rect x="31" y="19.4" width="4.3" height="4.3"/>
	<path d="M26.5,37.8l-0.2,0.9c0-0.2,0.1-0.5,0.1-0.7L26.5,37.8z"/>
	<polygon points="25.1,7.9 25.1,10.5 22.2,10.5 22.2,13.3 19.7,13.3 19.7,10.5 16.9,10.5 16.9,7.9 19.7,7.9 19.7,5 22.2,5 22.2,7.9 
			"/>
</g>
</svg>
