<?xml version="1.0" encoding="utf-8"?>
<!-- Generator: Adobe Illustrator 22.0.1, SVG Export Plug-In . SVG Version: 6.00 Build 0)  -->
<svg version="1.1" id="Layer_1" xmlns="http://www.w3.org/2000/svg" xmlns:xlink="http://www.w3.org/1999/xlink" x="0px" y="0px"
	 viewBox="0 0 50 50" style="enable-background:new 0 0 50 50;" xml:space="preserve">
<g>
	<g>
		<path d="M47.6,38.7c-0.2-0.1-0.5-0.1-0.7-0.1c-0.3,0-0.7-0.1-1-0.2c-0.3-0.1-0.5-0.4-0.5-0.7c0.1-1.6-0.2-3-1.1-4.4
			c0-0.1-0.1-0.2-0.1-0.2c0.2-0.2,0.2-0.6,0.6-0.7c0.3-0.1,0.6-0.3,0.8-0.5c0.3-0.2,0.5-0.4,0.5-0.7c0-0.2-0.1-0.4-0.3-0.4
			c-0.3-0.1-0.6,0.1-0.8,0.3c-0.3,0.3-0.6,0.6-0.9,0.9c-0.3,0.2-0.7,0.2-0.9,0c-0.5-0.4-1-0.8-1.6-1.1c-0.7-0.4-1.5-0.6-2.3-0.7
			c-0.2,0-0.3-0.2-0.4-0.3c-0.2-0.6-0.2-0.7,0-1.5c0-0.1,0-0.3,0-0.4c0-0.3-0.3-0.6-0.6-0.6c-0.3,0-0.5,0.2-0.6,0.6
			c0,0.2,0,0.4,0,0.5c0.1,0.4,0.1,0.7,0.1,1.1c0,0.3-0.3,0.6-0.6,0.7c-1.5,0.2-2.8,0.8-3.9,1.8c-0.3,0.3-0.6,0.3-1,0
			c-0.4-0.3-0.7-0.7-1.1-1c-0.3-0.2-0.6-0.2-0.8,0c-0.2,0.2-0.2,0.6,0.1,0.8c0.1,0.1,0.2,0.1,0.3,0.2c0.3,0.2,0.7,0.4,1,0.7
			c0.2,0.2,0.5,0.5,0.3,0.8c-0.8,1.4-1.2,2.9-1,4.5c0,0.2-0.1,0.3-0.2,0.4c-0.2,0.1-0.3,0.3-0.6,0.3c-0.3,0-0.6,0.1-0.9,0.1
			c-0.1,0-0.3,0-0.4,0.1c-0.4,0.1-0.6,0.4-0.5,0.7c0.1,0.3,0.4,0.5,0.7,0.4c0.2,0,0.4-0.1,0.6-0.2c0.4-0.2,0.9-0.4,1.3-0.3
			c0.2,0,0.3,0.2,0.3,0.3c0.6,1.5,1.5,2.7,2.8,3.5c0.1,0.1,0.2,0.2,0.2,0.4c0,0.5-0.3,0.8-0.5,1.2C34,44.8,34,44.9,33.9,45
			c-0.1,0.2-0.3,0.4-0.2,0.7c0,0.4,0.4,0.6,0.8,0.4c0.2-0.1,0.3-0.4,0.4-0.6c0.1-0.4,0.2-0.8,0.4-1.1c0.1-0.3,0.5-0.5,0.8-0.4
			c1.5,0.5,3,0.5,4.5,0c0.1,0,0.2,0,0.4,0.1c0.3,0.2,0.4,0.5,0.5,0.8c0.1,0.3,0.2,0.7,0.4,1c0.1,0.3,0.5,0.4,0.7,0.3
			c0.3-0.1,0.4-0.4,0.3-0.8c-0.1-0.2-0.2-0.3-0.3-0.5c-0.3-0.4-0.6-0.8-0.6-1.3c0-0.2,0.1-0.3,0.2-0.4c1.3-0.9,2.2-2,2.8-3.5
			c0.1-0.2,0.2-0.3,0.4-0.3c0.5-0.1,0.6,0,1.3,0.2c0.2,0.1,0.4,0.2,0.7,0.2c0.3,0,0.5-0.1,0.6-0.4C48.1,39.1,47.9,38.8,47.6,38.7z
			 M38.3,36.2c0.4,0,1,0.4,1,0.8c0,0.5-0.5,1.1-1,1.1c-0.4,0-1-0.6-1-1.2C37.3,36.7,37.8,36.2,38.3,36.2z M32.5,37.1
			c0-0.8,0.2-1.6,0.5-2.3c0.1-0.3,0.5-0.4,0.8-0.2c0.4,0.4,0.8,0.8,1.3,1.1c0.1,0.1,0.3,0.2,0.4,0.4c0.3,0.3,0.2,0.7-0.2,0.9
			c-0.7,0.2-1.4,0.4-2.2,0.6C32.9,37.7,32.5,37.4,32.5,37.1z M36.3,39.3c-0.3,0.7-0.5,1.3-0.8,2c-0.1,0.3-0.5,0.4-0.8,0.2
			c-0.6-0.5-1.1-1.1-1.5-1.9c-0.1-0.3,0-0.6,0.4-0.7c0.8-0.1,1.5-0.3,2.3-0.4C36.2,38.6,36.4,38.9,36.3,39.3z M34.8,33.4
			c-0.3-0.2-0.3-0.6,0-0.8c0.6-0.5,1.3-0.8,2.1-1c0.3-0.1,0.6,0.2,0.6,0.5c0,0.8-0.1,1.5-0.1,2.3c0,0.4-0.4,0.6-0.7,0.3
			C36,34.3,35.4,33.9,34.8,33.4z M39.4,42.7c-0.8,0.2-1.6,0.2-2.4,0c-0.3-0.1-0.5-0.4-0.3-0.7c0.2-0.4,0.4-0.8,0.6-1.1
			c0.2-0.3,0.3-0.6,0.5-0.9c0.2-0.3,0.6-0.3,0.8,0c0.4,0.7,0.8,1.3,1.1,2C40,42.3,39.8,42.7,39.4,42.7z M39.1,34.3
			c0-0.7-0.1-1.4-0.1-2.1c0,0,0,0,0,0c0-0.3,0.3-0.6,0.6-0.5c0.8,0.2,1.5,0.5,2.1,1c0.3,0.2,0.3,0.6,0,0.8c-0.1,0.1-0.2,0.1-0.3,0.2
			c-0.5,0.3-1,0.7-1.5,1C39.5,35,39.2,34.8,39.1,34.3z M43.4,39.7c-0.4,0.7-0.8,1.3-1.5,1.9c-0.3,0.2-0.7,0.1-0.8-0.2
			c-0.3-0.6-0.5-1.2-0.8-1.8c0-0.1-0.1-0.2-0.1-0.3c-0.1-0.4,0.1-0.7,0.5-0.6c0.8,0.1,1.5,0.2,2.3,0.4C43.4,39,43.5,39.4,43.4,39.7z
			 M43.4,37.5c-0.8-0.2-1.5-0.4-2.2-0.6c-0.3-0.1-0.5-0.5-0.2-0.8c0.6-0.5,1.1-1,1.7-1.6c0.3-0.2,0.6-0.1,0.8,0.2
			c0.3,0.7,0.5,1.5,0.5,2.3C44,37.4,43.7,37.6,43.4,37.5z"/>
	</g>
	<path d="M26.6,38.5c-0.1,0.2-0.1,0.5-0.1,0.7l0.2-0.9L26.6,38.5z"/>
	<path d="M35.4,3H6.2C3.9,3,2,4.9,2,7.2v28.6c0,2.3,1.9,4.2,4.2,4.2h19.3c0.3,0,0.6-0.1,0.8-0.4c0.1-0.1,0.1-0.2,0.1-0.2
		c0,0,0,0,0,0c0-0.2,0.1-0.5,0.1-0.7l0-0.2c0,0,0,0,0,0l0.4-1.6l1.3-5.6c0.1-0.2,0.1-0.5,0.2-0.7c0.1-0.2,0.1-0.3,0.1-0.4
		c0-0.1,0.6-0.4,1-0.6l0.6-0.3l1.1-0.5l2-1l3.1-1.5c0,0,0.1,0,0.1,0c0.1,0,0.2-0.1,0.3-0.1l2.3-1.2c0.3-0.2,0.5-0.5,0.5-0.9V7.2
		C39.5,4.9,37.7,3,35.4,3z M36.5,23.6C36.4,23.6,36.4,23.7,36.5,23.6l-7.7,3.7l-6.1-3.5c0.1-0.3,0.2-0.6,0.3-0.9h5.8
		c0.4,0,0.8-0.2,1.1-0.4c0.3-0.3,0.5-0.7,0.4-1.1c0-0.8-0.7-1.5-1.6-1.5H23c-0.1-0.3-0.2-0.6-0.3-0.9l6.6-3.8
		c0.5-0.3,0.8-0.8,0.8-1.3c0-0.3-0.1-0.5-0.2-0.8c-0.4-0.7-1.4-1-2.1-0.6l-6.8,3.9c-1.2-1.2-2.9-1.9-4.8-1.9c-3.3,0-6,2.3-6.7,5.3
		H7.3c-0.4,0-0.8,0.2-1.1,0.4c-0.3,0.3-0.5,0.7-0.4,1.1c0,0.8,0.7,1.5,1.6,1.5h2.1c0.7,3.1,3.4,5.4,6.7,5.4c1.8,0,3.5-0.7,4.8-1.9
		l5.2,3c0,0.1,0,0.2-0.1,0.3l-1.6,6.9l0,0.2H6.8c-0.9,0-1.6-0.7-1.6-1.6V7.6C5.2,6.7,5.9,6,6.8,6h28.1c0.9,0,1.6,0.7,1.6,1.6V23.6z
		 M20.9,21.3L20.9,21.3c0,2.5-2,4.6-4.5,4.7c-2.6,0-4.7-2-4.7-4.6v0c0-2.5,2-4.6,4.5-4.7C18.8,16.7,20.9,18.8,20.9,21.3z"/>
	<rect x="31.2" y="10.5" width="4.4" height="4.4"/>
	<rect x="31.2" y="19.1" width="4.4" height="4.4"/>
	<path d="M26.6,38.4l-0.2,0.9c0-0.2,0.1-0.5,0.1-0.7L26.6,38.4z"/>
</g>
</svg>
