<?xml version="1.0" encoding="utf-8"?>
<!-- Generator: Adobe Illustrator 22.0.1, SVG Export Plug-In . SVG Version: 6.00 Build 0)  -->
<svg version="1.1" id="Layer_1" xmlns="http://www.w3.org/2000/svg" xmlns:xlink="http://www.w3.org/1999/xlink" x="0px" y="0px"
	 viewBox="0 0 50 50" style="enable-background:new 0 0 50 50;" xml:space="preserve">
<style type="text/css">
	.st0{fill:none;}
</style>
<g>
	<line class="st0" x1="21.8" y1="32.4" x2="21.4" y2="32.9"/>
	<path d="M47,40.8c-0.2-0.1-0.4-0.1-0.7-0.1c-0.3,0-0.7-0.1-1-0.2c-0.3-0.1-0.5-0.3-0.5-0.7c0.1-1.5-0.2-2.9-1-4.2
		c0-0.1-0.1-0.2-0.1-0.2c0.2-0.2,0.2-0.5,0.5-0.7c0.3-0.1,0.5-0.3,0.8-0.5c0.3-0.2,0.5-0.4,0.5-0.7c0-0.2-0.1-0.4-0.3-0.4
		c-0.3-0.1-0.6,0.1-0.8,0.3c-0.3,0.3-0.6,0.6-0.9,0.9c-0.3,0.2-0.6,0.2-0.9,0c-0.5-0.4-1-0.8-1.6-1.1c-0.7-0.4-1.5-0.6-2.2-0.7
		c-0.2,0-0.3-0.2-0.4-0.3c-0.2-0.6-0.2-0.7,0-1.5c0-0.1,0-0.3,0-0.4c0-0.3-0.3-0.6-0.5-0.6c-0.3,0-0.5,0.2-0.6,0.6
		c0,0.2,0,0.3,0,0.5c0.1,0.3,0.1,0.7,0.1,1.1c0,0.3-0.2,0.6-0.6,0.7c-1.4,0.2-2.7,0.8-3.8,1.8c-0.3,0.3-0.6,0.3-1,0
		c-0.4-0.3-0.7-0.7-1-1c-0.3-0.2-0.6-0.2-0.8,0c-0.2,0.2-0.2,0.6,0.1,0.8c0.1,0.1,0.2,0.1,0.3,0.2c0.3,0.2,0.7,0.4,1,0.6
		c0.2,0.2,0.5,0.5,0.3,0.7c-0.8,1.3-1.1,2.8-1,4.3c0,0.2-0.1,0.3-0.2,0.4c-0.2,0.1-0.3,0.2-0.5,0.3c-0.3,0-0.6,0.1-0.9,0.1
		c-0.1,0-0.3,0-0.4,0.1c-0.4,0.1-0.5,0.4-0.5,0.7c0.1,0.3,0.4,0.4,0.7,0.4c0.2,0,0.4-0.1,0.6-0.2c0.4-0.2,0.8-0.3,1.3-0.2
		c0.2,0,0.3,0.2,0.3,0.3c0.5,1.4,1.5,2.6,2.7,3.4c0.1,0.1,0.2,0.2,0.2,0.4c0,0.5-0.2,0.8-0.5,1.2c-0.1,0.1-0.1,0.2-0.2,0.2
		c-0.1,0.2-0.3,0.4-0.2,0.7c0,0.4,0.4,0.6,0.7,0.4c0.2-0.1,0.3-0.3,0.4-0.6c0.1-0.4,0.2-0.7,0.4-1.1c0.1-0.3,0.5-0.5,0.8-0.4
		c1.5,0.5,2.9,0.5,4.4,0c0.1,0,0.2,0,0.4,0.1c0.3,0.2,0.4,0.5,0.5,0.7c0.1,0.3,0.2,0.7,0.4,1c0.1,0.3,0.5,0.4,0.7,0.3
		c0.3-0.1,0.4-0.4,0.3-0.7c-0.1-0.2-0.2-0.3-0.3-0.5c-0.3-0.4-0.6-0.8-0.6-1.3c0-0.2,0.1-0.3,0.2-0.4c1.3-0.8,2.2-2,2.7-3.4
		c0.1-0.2,0.2-0.3,0.4-0.3c0.5-0.1,0.6,0,1.3,0.2c0.2,0.1,0.4,0.2,0.7,0.2c0.3,0,0.5-0.1,0.6-0.4C47.4,41.1,47.2,40.9,47,40.8z
		 M37.9,38.4c0.4,0,1,0.4,0.9,0.7c0,0.5-0.5,1.1-0.9,1.1c-0.4,0-1-0.6-1-1.1C36.9,38.8,37.5,38.4,37.9,38.4z M32.3,39.1
		c0-0.8,0.2-1.5,0.5-2.2c0.1-0.3,0.5-0.4,0.8-0.2c0.4,0.4,0.8,0.7,1.2,1.1c0.1,0.1,0.3,0.2,0.4,0.4c0.3,0.3,0.2,0.7-0.2,0.8
		c-0.7,0.2-1.4,0.4-2.1,0.6C32.6,39.7,32.3,39.5,32.3,39.1z M35.9,41.4c-0.3,0.7-0.5,1.3-0.8,2c-0.1,0.3-0.5,0.4-0.8,0.2
		c-0.6-0.5-1.1-1.1-1.4-1.8c-0.1-0.3,0-0.6,0.3-0.7c0.7-0.1,1.5-0.2,2.2-0.4C35.8,40.6,36.1,41,35.9,41.4z M34.5,35.6
		c-0.3-0.2-0.3-0.6,0-0.8c0.6-0.5,1.3-0.8,2.1-1c0.3-0.1,0.6,0.2,0.6,0.5c0,0.8-0.1,1.5-0.1,2.2c0,0.4-0.4,0.5-0.7,0.3
		C35.7,36.5,35.1,36,34.5,35.6z M39,44.7c-0.8,0.2-1.5,0.2-2.3,0c-0.3-0.1-0.5-0.4-0.3-0.7c0.2-0.4,0.4-0.7,0.6-1.1
		c0.2-0.3,0.3-0.6,0.5-0.8c0.2-0.3,0.6-0.3,0.8,0c0.4,0.6,0.7,1.3,1.1,2C39.5,44.2,39.3,44.6,39,44.7z M38.7,36.4
		c0-0.7-0.1-1.4-0.1-2.1c0,0,0,0,0,0c0-0.3,0.3-0.6,0.6-0.5c0.8,0.2,1.4,0.5,2,1c0.3,0.2,0.3,0.6,0,0.8c-0.1,0.1-0.2,0.1-0.3,0.2
		c-0.5,0.3-0.9,0.7-1.4,1C39.1,37.1,38.7,36.9,38.7,36.4z M42.8,41.7c-0.4,0.7-0.8,1.3-1.4,1.8c-0.3,0.2-0.6,0.1-0.8-0.2
		c-0.2-0.6-0.5-1.2-0.7-1.8c0-0.1-0.1-0.2-0.1-0.3c-0.1-0.4,0.1-0.7,0.5-0.6c0.7,0.1,1.5,0.2,2.2,0.4C42.8,41.1,43,41.4,42.8,41.7z
		 M42.8,39.6c-0.7-0.2-1.4-0.4-2.1-0.6c-0.3-0.1-0.4-0.5-0.2-0.8c0.5-0.5,1.1-1,1.7-1.5c0.2-0.2,0.6-0.1,0.8,0.2
		c0.3,0.7,0.5,1.4,0.5,2.2C43.4,39.5,43.1,39.7,42.8,39.6z"/>
	<path d="M26.5,40.6c-0.1,0.2-0.1,0.5-0.1,0.7l0.2-0.9L26.5,40.6z"/>
	<path d="M35.1,6.1h-7.4v2.9h6.9c0.9,0,1.6,0.7,1.6,1.6v15.6c0,0-0.1,0-0.1,0l-7.3,3.5l-5.9-3.4c0.1-0.3,0.2-0.6,0.3-0.9h5.6
		c0.4,0,0.8-0.2,1-0.4c0.3-0.3,0.4-0.6,0.4-1.1c0-0.8-0.7-1.5-1.5-1.5h-5.6c-0.1-0.3-0.2-0.6-0.3-0.9l6.5-3.7
		c0.5-0.3,0.7-0.8,0.7-1.3c0-0.3-0.1-0.5-0.2-0.7c-0.4-0.7-1.3-0.9-2-0.5l-6.6,3.8c-1.2-1.2-2.9-1.9-4.7-1.9c-3.2,0-5.9,2.2-6.5,5.2
		H7.8c-0.4,0-0.8,0.2-1,0.4c-0.3,0.3-0.4,0.6-0.4,1.1c0,0.8,0.7,1.5,1.5,1.5h2.1c0.7,3,3.3,5.3,6.6,5.3c1.8,0,3.4-0.7,4.6-1.9
		l5.1,2.9c0,0.1,0,0.2-0.1,0.2l-1.5,6.7l0,0.2H7.3c-0.9,0-1.6-0.7-1.6-1.6V10.5c0-0.9,0.7-1.6,1.6-1.6H14V6.1H6.7c-2.2,0-4,1.8-4,4
		v27.8c0,2.2,1.8,4,4,4h18.8c0.3,0,0.6-0.1,0.8-0.4c0.1-0.1,0.1-0.2,0.1-0.2c0,0,0,0,0,0c0-0.2,0.1-0.5,0.1-0.7l0-0.2c0,0,0,0,0,0
		l0.4-1.6l1.2-5.4c0.1-0.2,0.1-0.5,0.2-0.7c0-0.2,0.1-0.3,0.1-0.4c0-0.1,0.5-0.3,1-0.6l0.5-0.3L31,31l1.9-0.9l3.1-1.5
		c0,0,0.1,0,0.1,0c0.1,0,0.2-0.1,0.3-0.1l2.2-1.1c0.3-0.2,0.5-0.5,0.5-0.8V10.1C39.1,7.9,37.3,6.1,35.1,6.1z M21,23.9
		c0,2.5-2,4.5-4.4,4.5c-2.5,0-4.5-2-4.5-4.5v0c0-2.5,2-4.5,4.4-4.5C18.9,19.4,21,21.4,21,23.9L21,23.9z"/>
	<rect x="31" y="13.3" width="4.3" height="4.3"/>
	<rect x="31" y="21.7" width="4.3" height="4.3"/>
	<path d="M26.6,40.4l-0.2,0.9c0-0.2,0.1-0.5,0.1-0.7L26.6,40.4z"/>
	<polygon points="26.4,5.8 26.4,9.2 22.6,9.2 22.6,12.9 19.2,12.9 19.2,9.2 15.5,9.2 15.5,5.8 19.2,5.8 19.2,2 22.6,2 22.6,5.8 	"/>
</g>
</svg>
