<?xml version="1.0" encoding="utf-8"?>
<!-- Generator: Adobe Illustrator 22.0.1, SVG Export Plug-In . SVG Version: 6.00 Build 0)  -->
<svg version="1.1" id="Layer_1" xmlns="http://www.w3.org/2000/svg" xmlns:xlink="http://www.w3.org/1999/xlink" x="0px" y="0px"
	 viewBox="0 0 50 50" style="enable-background:new 0 0 50 50;" xml:space="preserve">
<style type="text/css">
	.st0{fill:none;}
</style>
<g>
	<line class="st0" x1="21.5" y1="30.6" x2="21" y2="31.2"/>
	<g>
		<g>
			<path d="M47.8,39.4c-0.2-0.1-0.5-0.1-0.7-0.1c-0.4,0-0.7-0.1-1-0.2c-0.4-0.1-0.5-0.4-0.5-0.7c0.1-1.6-0.2-3.1-1.1-4.4
				c0-0.1-0.2-0.2-0.1-0.3c0.2-0.2,0.3-0.6,0.6-0.7c0.3-0.2,0.6-0.4,0.9-0.5c0.3-0.2,0.5-0.4,0.5-0.7c0-0.2-0.1-0.4-0.3-0.5
				c-0.3-0.1-0.6,0.1-0.8,0.3c-0.3,0.3-0.6,0.6-0.9,0.9c-0.3,0.2-0.7,0.2-1,0c-0.5-0.5-1-0.8-1.6-1.2c-0.7-0.4-1.5-0.6-2.4-0.8
				c-0.2,0-0.3-0.2-0.4-0.3c-0.2-0.6-0.2-0.7,0-1.5c0-0.1,0-0.3,0-0.4c0-0.3-0.3-0.6-0.6-0.6c-0.3,0-0.6,0.3-0.6,0.6
				c0,0.2,0,0.4,0,0.5c0.1,0.4,0.1,0.7,0.1,1.1c0,0.3-0.3,0.6-0.6,0.7c-1.5,0.2-2.8,0.8-4,1.9c-0.3,0.3-0.6,0.3-1,0
				c-0.4-0.3-0.7-0.7-1.1-1c-0.3-0.2-0.7-0.2-0.8,0c-0.2,0.2-0.2,0.6,0.1,0.9c0.1,0.1,0.2,0.1,0.3,0.2c0.3,0.2,0.7,0.4,1,0.7
				c0.2,0.2,0.5,0.5,0.3,0.8c-0.9,1.4-1.2,2.9-1.1,4.5c0,0.2-0.1,0.3-0.2,0.4c-0.2,0.1-0.3,0.3-0.6,0.3c-0.3,0-0.6,0.1-1,0.1
				c-0.1,0-0.3,0-0.4,0.1c-0.4,0.1-0.6,0.4-0.5,0.7c0.1,0.3,0.4,0.5,0.8,0.4c0.2,0,0.4-0.1,0.6-0.2c0.4-0.2,0.9-0.4,1.4-0.3
				c0.2,0,0.3,0.2,0.4,0.3c0.6,1.5,1.5,2.7,2.9,3.6c0.1,0.1,0.2,0.2,0.2,0.4c0,0.5-0.3,0.9-0.5,1.2c-0.1,0.1-0.1,0.2-0.2,0.3
				c-0.1,0.2-0.3,0.4-0.2,0.7c0,0.4,0.4,0.6,0.8,0.4c0.3-0.1,0.3-0.4,0.4-0.6c0.1-0.4,0.3-0.8,0.4-1.1c0.2-0.4,0.5-0.5,0.8-0.5
				c1.5,0.5,3.1,0.5,4.6,0c0.2-0.1,0.2,0,0.4,0.1c0.3,0.2,0.4,0.5,0.5,0.8c0.1,0.3,0.2,0.7,0.4,1c0.1,0.3,0.5,0.4,0.7,0.3
				c0.3-0.1,0.4-0.4,0.3-0.8c-0.1-0.2-0.2-0.3-0.3-0.5c-0.3-0.4-0.6-0.8-0.6-1.3c0-0.2,0.1-0.3,0.2-0.4c1.3-0.9,2.3-2.1,2.9-3.6
				c0.1-0.2,0.2-0.3,0.4-0.3c0.6-0.1,0.6,0,1.3,0.2c0.2,0.1,0.4,0.2,0.7,0.2c0.3,0,0.6-0.1,0.6-0.4C48.3,39.7,48.1,39.5,47.8,39.4z
				 M38.3,36.9c0.4,0,1,0.4,1,0.8c0,0.5-0.5,1.1-1,1.2c-0.4,0-1-0.6-1-1.2C37.3,37.3,37.9,36.9,38.3,36.9z M32.5,37.7
				c0-0.8,0.2-1.6,0.5-2.4c0.1-0.3,0.5-0.4,0.8-0.2c0.4,0.4,0.9,0.8,1.3,1.1c0.1,0.1,0.3,0.2,0.4,0.4c0.3,0.3,0.2,0.7-0.2,0.9
				c-0.7,0.2-1.4,0.4-2.2,0.6C32.8,38.3,32.5,38,32.5,37.7z M36.3,40c-0.3,0.7-0.6,1.4-0.8,2.1c-0.1,0.3-0.5,0.4-0.8,0.2
				c-0.6-0.5-1.1-1.1-1.5-1.9c-0.1-0.3,0-0.7,0.4-0.7c0.8-0.2,1.5-0.3,2.3-0.4C36.2,39.2,36.4,39.6,36.3,40z M34.7,34
				c-0.3-0.2-0.3-0.6,0-0.8c0.7-0.5,1.4-0.8,2.2-1c0.3-0.1,0.7,0.2,0.6,0.5c0,0.8-0.1,1.6-0.1,2.3c0,0.4-0.4,0.6-0.8,0.3
				C36,34.9,35.4,34.5,34.7,34z M39.5,43.5c-0.8,0.2-1.6,0.2-2.4,0c-0.3-0.1-0.5-0.4-0.3-0.7c0.2-0.4,0.4-0.8,0.6-1.1
				c0.2-0.3,0.3-0.6,0.5-0.9c0.2-0.3,0.6-0.3,0.8,0c0.4,0.7,0.8,1.4,1.2,2.1C40,43,39.8,43.4,39.5,43.5z M39.2,34.8
				c0-0.7-0.1-1.5-0.1-2.2c0,0,0,0,0,0c0-0.3,0.3-0.6,0.6-0.5c0.8,0.2,1.5,0.5,2.1,1c0.3,0.2,0.3,0.6,0,0.8
				c-0.1,0.1-0.2,0.2-0.3,0.2c-0.5,0.4-1,0.7-1.5,1.1C39.6,35.6,39.2,35.4,39.2,34.8z M43.5,40.4c-0.4,0.7-0.9,1.4-1.5,1.9
				c-0.3,0.2-0.7,0.1-0.8-0.2c-0.3-0.6-0.5-1.2-0.8-1.9c0-0.1-0.1-0.2-0.1-0.3c-0.1-0.4,0.1-0.7,0.5-0.6c0.8,0.1,1.5,0.2,2.3,0.4
				C43.5,39.7,43.7,40.1,43.5,40.4z M43.5,38.2c-0.8-0.2-1.5-0.4-2.3-0.7c-0.3-0.1-0.5-0.5-0.2-0.8c0.6-0.5,1.2-1.1,1.8-1.6
				c0.3-0.2,0.7-0.1,0.8,0.2c0.3,0.7,0.5,1.5,0.6,2.3C44.1,38,43.8,38.3,43.5,38.2z"/>
		</g>
		<path d="M26.4,39.2c-0.1,0.3-0.1,0.5-0.1,0.8l0.2-0.9L26.4,39.2z"/>
		<path d="M35.4,3H5.6C3.3,3,1.4,4.9,1.4,7.2v29.2c0,2.3,1.9,4.2,4.2,4.2h19.7c0.3,0,0.6-0.2,0.8-0.4c0.1-0.1,0.1-0.2,0.1-0.3
			c0,0,0,0,0,0c0-0.2,0.1-0.5,0.1-0.8l0-0.2c0,0,0,0,0,0l0.4-1.7l1.3-5.7c0.1-0.3,0.1-0.5,0.2-0.7c0.1-0.2,0.1-0.3,0.1-0.4
			c0-0.1,0.6-0.4,1.1-0.6l0.6-0.3l1.1-0.5l2-1l3.2-1.5c0,0,0.1,0,0.1,0c0.1,0,0.2-0.1,0.3-0.1l2.3-1.2c0.3-0.2,0.5-0.5,0.5-0.9V7.2
			C39.6,4.9,37.7,3,35.4,3z M36.5,24C36.4,24,36.4,24,36.5,24l-7.8,3.8l-6.2-3.6c0.1-0.3,0.2-0.6,0.3-0.9h5.9c0.4,0,0.8-0.2,1.1-0.5
			c0.3-0.3,0.5-0.7,0.5-1.1c0-0.9-0.7-1.5-1.6-1.5h-5.9c-0.1-0.3-0.2-0.6-0.3-0.9l6.8-3.9C29.8,15,30,14.5,30,14
			c0-0.3-0.1-0.5-0.2-0.8c-0.4-0.7-1.4-1-2.1-0.6l-6.9,4c-1.3-1.2-3-2-4.9-2c-3.3,0-6.1,2.3-6.9,5.4H6.8c-0.4,0-0.8,0.2-1.1,0.5
			c-0.3,0.3-0.5,0.7-0.5,1.1c0,0.9,0.7,1.5,1.6,1.5H9c0.7,3.2,3.5,5.5,6.9,5.5c1.9,0,3.6-0.7,4.9-1.9l5.3,3.1c0,0.1,0,0.2-0.1,0.3
			l-1.6,7l0,0.2H6.2c-0.9,0-1.6-0.7-1.6-1.6v-28C4.6,6.8,5.3,6,6.2,6h28.6c0.9,0,1.6,0.7,1.6,1.6V24z M20.6,21.7L20.6,21.7
			c0,2.6-2,4.7-4.6,4.8c-2.6,0-4.8-2.1-4.8-4.7v0c0-2.6,2-4.7,4.6-4.8C18.4,17,20.6,19.1,20.6,21.7z"/>
		<rect x="31.1" y="10.6" width="4.5" height="4.5"/>
		<rect x="31.1" y="19.4" width="4.5" height="4.5"/>
		<path d="M26.4,39l-0.2,0.9c0-0.2,0.1-0.5,0.1-0.8L26.4,39z"/>
	</g>
	<polygon points="14.2,10.1 14.2,12.8 11.1,12.8 11.1,15.8 8.4,15.8 8.4,12.8 5.4,12.8 5.4,10.1 8.4,10.1 8.4,7 11.1,7 11.1,10.1 	
		"/>
</g>
</svg>
